# xmcd CD database file
#
# Track frame offsets:
#	150
#	26860
#	57943
#
# Disc length: 1212 seconds
#
# Revision: 0
# Processed by: cddbd v1.5.1PL0 Copyright (c) Steve Scherf et al.
# Submitted via: CDex 1.51
#
DISCID=2204ba03
DTITLE=Joi - Bangladesh EP
DYEAR=1996
DGENRE=New Age
TTITLE0=High Times
TTITLE1=Nargin
TTITLE2=Esy (spring Heel Jack mix)
EXTD=YEAR: 1996
EXTT0=
EXTT1=
EXTT2=
PLAYORDER=
